<?xml version="1.0" encoding="UTF-8"?>
<svg xmlns="http://www.w3.org/2000/svg" xmlns:xlink="http://www.w3.org/1999/xlink" width="100px" height="100px" viewBox="0 0 100 100" version="1.1">
<g id="surface1">
<path style=" stroke:none;fill-rule:nonzero;fill:rgb(89.411765%,30.19608%,14.901961%);fill-opacity:1;" d="M 85.332031 19.601562 L 78.894531 91.726562 L 49.957031 99.746094 L 21.097656 91.734375 L 14.667969 19.601562 Z M 85.332031 19.601562 "/>
<path style=" stroke:none;fill-rule:nonzero;fill:rgb(94.509804%,39.607844%,16.078432%);fill-opacity:1;" d="M 50 93.613281 L 73.382812 87.132812 L 78.886719 25.5 L 50 25.5 Z M 50 93.613281 "/>
<path style=" stroke:none;fill-rule:nonzero;fill:rgb(92.156863%,92.156863%,92.156863%);fill-opacity:1;" d="M 37.484375 43.195312 L 50 43.195312 L 50 34.347656 L 27.816406 34.347656 L 28.027344 36.722656 L 30.203125 61.101562 L 50 61.101562 L 50 52.253906 L 38.292969 52.253906 Z M 39.480469 65.523438 L 30.597656 65.523438 L 31.835938 79.414062 L 49.960938 84.445312 L 50 84.433594 L 50 75.230469 L 49.960938 75.238281 L 40.109375 72.578125 Z M 39.480469 65.523438 "/>
<path style=" stroke:none;fill-rule:nonzero;fill:rgb(0%,0%,0%);fill-opacity:1;" d="M 21.242188 0 L 25.738281 0 L 25.738281 4.441406 L 29.847656 4.441406 L 29.847656 0 L 34.347656 0 L 34.347656 13.449219 L 29.851562 13.449219 L 29.851562 8.945312 L 25.738281 8.945312 L 25.738281 13.449219 L 21.242188 13.449219 Z M 40.257812 4.460938 L 36.300781 4.460938 L 36.300781 0 L 48.714844 0 L 48.714844 4.460938 L 44.753906 4.460938 L 44.753906 13.449219 L 40.257812 13.449219 Z M 50.683594 0 L 55.371094 0 L 58.253906 4.726562 L 61.136719 0 L 65.828125 0 L 65.828125 13.449219 L 61.347656 13.449219 L 61.347656 6.785156 L 58.253906 11.566406 L 58.179688 11.566406 L 55.082031 6.785156 L 55.082031 13.449219 L 50.683594 13.449219 Z M 68.0625 0 L 72.5625 0 L 72.5625 9.003906 L 78.882812 9.003906 L 78.882812 13.449219 L 68.0625 13.449219 Z M 68.0625 0 "/>
<path style=" stroke:none;fill-rule:nonzero;fill:rgb(100%,100%,100%);fill-opacity:1;" d="M 49.96875 61.101562 L 60.863281 61.101562 L 59.835938 72.574219 L 49.96875 75.238281 L 49.96875 84.441406 L 68.105469 79.414062 L 68.238281 77.921875 L 70.316406 54.628906 L 70.535156 52.253906 L 49.96875 52.253906 Z M 49.96875 43.171875 L 49.96875 43.195312 L 71.339844 43.195312 L 71.515625 41.207031 L 71.917969 36.722656 L 72.128906 34.347656 L 49.96875 34.347656 Z M 49.96875 43.171875 "/>
</g>
</svg>
