<?xml version="1.0" encoding="UTF-8"?>
<svg xmlns="http://www.w3.org/2000/svg" xmlns:xlink="http://www.w3.org/1999/xlink" width="100px" height="100px" viewBox="0 0 100 100" version="1.1">
<g id="surface1">
<path style=" stroke:none;fill-rule:nonzero;fill:rgb(94.117647%,83.921569%,71.764706%);fill-opacity:1;" d="M 23.238281 44.417969 C 23.394531 44.28125 23.566406 44.160156 23.75 44.0625 C 23.558594 44.152344 23.386719 44.269531 23.238281 44.417969 Z M 23.238281 44.417969 "/>
<path style=" stroke:none;fill-rule:nonzero;fill:rgb(94.117647%,83.921569%,71.764706%);fill-opacity:1;" d="M 32.539062 57.039062 C 32.726562 58.355469 33.289062 70.054688 41.179688 76.570312 C 42.785156 76.820312 44.402344 76.992188 46.023438 77.078125 C 46.898438 75.203125 50.121094 75.347656 52.226562 75.828125 C 49.589844 74.480469 47.269531 72.585938 45.425781 70.273438 C 42.96875 68.128906 41.34375 65.191406 40.824219 61.972656 C 45.039062 67.816406 48.519531 72.910156 56.179688 75.492188 C 61.976562 77.433594 68.742188 74.601562 73.195312 71.472656 C 74.914062 69.984375 76.355469 68.207031 77.460938 66.222656 C 82.511719 58.1875 84.859375 48.746094 84.164062 39.28125 C 84.308594 35.625 83.777344 31.976562 82.601562 28.511719 C 81.1875 25.675781 76.402344 23.136719 73.601562 25.699219 C 73.558594 25.445312 73.539062 25.1875 73.554688 24.929688 C 73.105469 25.351562 72.835938 25.65625 72.835938 25.65625 C 72.601562 25.179688 72.472656 24.664062 72.453125 24.132812 C 72.535156 21.582031 74.585938 19.53125 77.140625 19.445312 C 75.808594 17.632812 74.257812 15.992188 72.519531 14.5625 C 66.425781 12.480469 59.851562 12.238281 53.621094 13.867188 C 44.832031 15.757812 37.714844 22.191406 34.949219 30.742188 C 34.355469 33.0625 33.949219 35.429688 33.738281 37.816406 C 33.640625 40.578125 35.039062 42.988281 35.144531 45.992188 C 34.398438 47.226562 32.117188 47.378906 30.539062 47.292969 C 30.421875 46.710938 30.28125 46.109375 30.113281 45.523438 C 28.871094 44.832031 27.539062 44.304688 26.160156 43.960938 C 28.664062 44.988281 30.015625 47.71875 29.3125 50.332031 C 28.148438 49.664062 27.867188 46.738281 26.5 46.652344 C 24.542969 46.535156 24.898438 50.453125 24.910156 52.746094 C 23.53125 50.699219 23.308594 48.085938 24.316406 45.832031 C 23.429688 45.398438 22.929688 46.023438 22.441406 46.507812 C 21.746094 49.746094 20.730469 52.363281 22.632812 55.632812 C 23.734375 56.914062 25.367188 57.605469 27.054688 57.507812 C 28.824219 57.335938 29.257812 55.558594 31.191406 55.578125 C 31.925781 55.695312 32.480469 56.300781 32.539062 57.039062 Z M 52.691406 63.125 L 51.753906 62.933594 C 51.753906 62.933594 50.773438 59.496094 51.242188 58.851562 C 51.492188 58.519531 52.867188 58.015625 54.792969 58.941406 C 54.78125 58.945312 52.5 59.324219 52.691406 63.125 Z M 70.523438 67.316406 C 67.046875 68.492188 63.28125 68.476562 59.816406 67.273438 C 58.1875 66.078125 56.820312 64.558594 55.804688 62.8125 C 55.320312 62.1875 52.910156 60.601562 55.769531 60.597656 C 58.007812 66.222656 65.707031 65.570312 72.195312 65.417969 C 71.898438 66.242188 71.300781 66.917969 70.523438 67.320312 Z M 71.460938 62.316406 C 71.3125 61.214844 71.3125 60.097656 71.460938 58.992188 C 74.746094 58.351562 77.886719 57.09375 80.710938 55.289062 C 79.273438 59.246094 75.652344 61.992188 71.457031 62.308594 Z M 80.070312 37.085938 C 79.5 37.277344 75.789062 39.46875 76.078125 36.707031 C 76.375 35.042969 77.636719 33.71875 79.285156 33.339844 C 79.257812 32.925781 79.257812 32.507812 79.285156 32.089844 L 79.53125 32.089844 C 80.570312 34.5625 81.796875 36.957031 83.195312 39.246094 C 82.203125 41.554688 75.695312 43.589844 75.800781 39.453125 C 77.207031 38.828125 79.632812 39.328125 80.882812 38.542969 C 80.585938 37.742188 80.257812 36.980469 79.945312 36.179688 Z M 63.863281 51.929688 C 63.917969 52.03125 63.964844 52.136719 64.007812 52.242188 C 64.289062 50.660156 64.816406 48.804688 65.71875 49.078125 C 66.621094 49.328125 67.253906 50.136719 67.28125 51.070312 C 66.230469 51.753906 65.238281 52.523438 64.320312 53.378906 C 64.523438 54.316406 64.769531 55.253906 65.953125 55.464844 C 69.410156 56.054688 73.429688 53.351562 75.917969 52.40625 C 77.460938 49.804688 75.785156 48.851562 74.398438 47.179688 C 71.554688 43.742188 67.742188 39.503906 67.878906 34.367188 C 69.027344 33.53125 69.128906 35.636719 69.289062 36.023438 C 71.402344 40.015625 74.078125 43.6875 77.238281 46.914062 C 77.90625 47.648438 79.007812 48.351562 79.132812 48.835938 C 79.484375 50.242188 78.210938 51.929688 78.359375 52.867188 C 74.398438 55.984375 69.433594 57.539062 64.402344 57.242188 C 62.945312 55.839844 62.710938 53.589844 63.855469 51.921875 Z M 69.980469 59.183594 C 70.179688 60.277344 70.257812 61.390625 70.21875 62.5 C 64.558594 62.78125 57.867188 61.382812 56.382812 57.410156 C 60.734375 58.96875 65.371094 59.570312 69.976562 59.175781 Z M 56.679688 32.160156 C 57.40625 34.207031 58.4375 36.132812 59.734375 37.875 C 60.445312 38.570312 61.828125 39.414062 61.144531 41.339844 C 60.660156 42.085938 59.960938 42.667969 59.136719 43.007812 C 56.667969 43.738281 50.914062 43.160156 52.863281 40.082031 C 54.902344 40.175781 57.648438 41.40625 59.175781 39.925781 C 58.878906 39.449219 58.523438 38.859375 58.167969 38.203125 C 56.605469 39.191406 52.3125 39.234375 52.3125 36.707031 C 52.3125 34.042969 56.496094 33.476562 56.496094 33.476562 L 56.527344 33.550781 C 56.480469 33.078125 56.53125 32.601562 56.679688 32.148438 Z M 46.605469 23.007812 C 50.339844 20.460938 52.230469 21.914062 53.167969 23.597656 C 53.660156 23.789062 54.035156 24.191406 54.203125 24.691406 C 54.367188 25.191406 54.300781 25.738281 54.023438 26.183594 C 48.84375 24.976562 46.269531 28.351562 44.695312 31.851562 C 44.292969 32.585938 44.273438 32.066406 44.039062 31.429688 C 43.949219 31.300781 43.886719 31.15625 43.851562 31.003906 C 43.773438 30.863281 43.675781 30.738281 43.5625 30.625 C 42.8125 29.851562 42.421875 25.863281 46.605469 23.007812 Z M 46.605469 23.007812 "/>
<path style=" stroke:none;fill-rule:nonzero;fill:rgb(20%,31.372549%,38.039216%);fill-opacity:1;" d="M 19.632812 91.5 L 46.988281 91.5 C 46.863281 91.078125 46.742188 90.664062 46.617188 90.269531 C 45.957031 88.285156 45.457031 86.246094 45.132812 84.179688 C 41.777344 82.726562 38.550781 80.996094 35.484375 79.007812 C 35.214844 78.761719 34.964844 78.492188 34.734375 78.207031 L 18.277344 85.558594 C 18.277344 85.558594 18.867188 87.914062 19.632812 91.5 Z M 19.632812 91.5 "/>
<path style=" stroke:none;fill-rule:nonzero;fill:rgb(42.745098%,41.960784%,42.745098%);fill-opacity:1;" d="M 29.476562 21.875 C 29.953125 21.730469 30.441406 21.636719 30.9375 21.601562 C 31.710938 21.707031 32.492188 21.738281 33.273438 21.691406 C 34.816406 21.304688 36.121094 17.84375 37.289062 16.554688 C 38.222656 15.691406 39.207031 14.882812 40.226562 14.128906 C 35.960938 15.597656 32.222656 18.292969 29.476562 21.875 Z M 29.476562 21.875 "/>
<path style=" stroke:none;fill-rule:nonzero;fill:rgb(42.745098%,41.960784%,42.745098%);fill-opacity:1;" d="M 22.429688 39.332031 C 24.433594 38.269531 26.839844 38.296875 28.820312 39.398438 C 30.804688 40.5 32.097656 42.527344 32.257812 44.789062 C 34.425781 44.734375 33.066406 42.085938 32.675781 40.375 C 31.523438 35.351562 34.195312 29.9375 33.273438 25.183594 C 21.195312 26.992188 21.875 36.269531 22.429688 39.332031 Z M 22.429688 39.332031 "/>
<path style=" stroke:none;fill-rule:nonzero;fill:rgb(86.27451%,85.098039%,84.705882%);fill-opacity:1;" d="M 41.402344 12.035156 C 35.714844 13.648438 28.429688 17.777344 26.089844 22.886719 C 27.242188 22.636719 28.375 22.296875 29.476562 21.875 C 32.222656 18.292969 35.960938 15.597656 40.226562 14.128906 C 40.40625 13.96875 40.570312 13.792969 40.726562 13.609375 C 41.324219 13.320312 42.210938 13.339844 42.246094 12.4375 C 41.988281 12.160156 41.710938 11.945312 41.402344 12.035156 Z M 41.402344 12.035156 "/>
<path style=" stroke:none;fill-rule:nonzero;fill:rgb(86.27451%,85.098039%,84.705882%);fill-opacity:1;" d="M 23.4375 28.078125 C 20.9375 30.84375 21.449219 36.023438 21.757812 39.707031 C 21.976562 39.570312 22.203125 39.445312 22.4375 39.332031 C 21.875 36.273438 21.207031 26.992188 33.285156 25.183594 C 33.183594 24.660156 33.035156 24.144531 32.839844 23.644531 C 29.246094 23.835938 25.871094 25.429688 23.4375 28.078125 Z M 23.4375 28.078125 "/>
<path style=" stroke:none;fill-rule:nonzero;fill:rgb(96.862745%,89.411765%,80.392157%);fill-opacity:1;" d="M 32.539062 57.039062 C 32.484375 56.3125 31.945312 55.707031 31.226562 55.578125 C 32.273438 57.664062 29.613281 58.320312 29.351562 59.8125 C 29.382812 60.691406 29.515625 61.5625 29.742188 62.414062 C 30.667969 66.140625 32.191406 69.691406 34.257812 72.929688 C 35.972656 75.042969 38.480469 76.359375 41.195312 76.570312 C 33.289062 70.054688 32.726562 58.355469 32.539062 57.039062 Z M 32.539062 57.039062 "/>
<path style=" stroke:none;fill-rule:nonzero;fill:rgb(96.862745%,89.411765%,80.392157%);fill-opacity:1;" d="M 67.265625 51.054688 C 67.238281 50.121094 66.605469 49.3125 65.703125 49.0625 C 64.800781 48.804688 64.273438 50.644531 63.992188 52.226562 C 64.125 52.597656 64.230469 52.976562 64.304688 53.363281 C 65.222656 52.507812 66.214844 51.738281 67.265625 51.054688 Z M 67.265625 51.054688 "/>
<path style=" stroke:none;fill-rule:nonzero;fill:rgb(96.862745%,89.411765%,80.392157%);fill-opacity:1;" d="M 76.074219 36.699219 C 75.789062 39.460938 79.511719 37.273438 80.070312 37.082031 L 79.933594 36.1875 C 79.578125 35.273438 79.359375 34.3125 79.28125 33.335938 C 77.632812 33.710938 76.371094 35.035156 76.074219 36.699219 Z M 76.074219 36.699219 "/>
<path style=" stroke:none;fill-rule:nonzero;fill:rgb(96.862745%,89.411765%,80.392157%);fill-opacity:1;" d="M 52.308594 36.699219 C 52.308594 39.226562 56.59375 39.183594 58.164062 38.195312 C 57.320312 36.769531 56.761719 35.1875 56.523438 33.542969 L 56.492188 33.46875 C 56.492188 33.46875 52.308594 34.039062 52.308594 36.699219 Z M 52.308594 36.699219 "/>
<path style=" stroke:none;fill-rule:nonzero;fill:rgb(96.862745%,89.411765%,80.392157%);fill-opacity:1;" d="M 22.476562 46.515625 C 22.355469 46.640625 22.226562 46.757812 22.085938 46.855469 C 22.160156 45.929688 22.570312 45.0625 23.242188 44.414062 C 23.390625 44.269531 23.5625 44.148438 23.75 44.0625 C 24.515625 43.691406 25.402344 43.65625 26.195312 43.960938 C 27.574219 44.304688 28.902344 44.832031 30.148438 45.523438 C 29.542969 43.449219 28.507812 41.578125 26.371094 41.34375 C 24.636719 41.199219 22.917969 41.777344 21.617188 42.9375 C 20.320312 44.09375 19.550781 45.738281 19.496094 47.476562 C 19.496094 50.496094 20.628906 53.402344 22.667969 55.625 C 20.761719 52.367188 21.78125 49.753906 22.476562 46.515625 Z M 22.476562 46.515625 "/>
<path style=" stroke:none;fill-rule:nonzero;fill:rgb(96.862745%,89.411765%,80.392157%);fill-opacity:1;" d="M 53.640625 13.882812 C 59.871094 12.253906 66.445312 12.496094 72.539062 14.578125 C 72.050781 14.199219 71.539062 13.855469 71.007812 13.550781 C 65.101562 10.21875 55.113281 7.714844 48.820312 10.84375 C 43.753906 13.367188 36.902344 17.550781 34.570312 22.847656 C 35.527344 25.378906 35.664062 28.148438 34.953125 30.757812 C 37.722656 22.199219 44.84375 15.769531 53.640625 13.882812 Z M 53.640625 13.882812 "/>
<path style=" stroke:none;fill-rule:nonzero;fill:rgb(96.862745%,89.411765%,80.392157%);fill-opacity:1;" d="M 72.460938 24.148438 C 72.480469 24.679688 72.613281 25.195312 72.84375 25.671875 C 72.84375 25.671875 73.117188 25.359375 73.5625 24.945312 C 73.660156 22.652344 76.265625 21.347656 79.289062 22.242188 C 78.59375 21.347656 77.890625 20.398438 77.160156 19.460938 C 74.601562 19.539062 72.546875 21.59375 72.460938 24.148438 Z M 72.460938 24.148438 "/>
<path style=" stroke:none;fill-rule:nonzero;fill:rgb(96.862745%,89.411765%,80.392157%);fill-opacity:1;" d="M 44.039062 31.429688 C 44.269531 32.054688 44.292969 32.585938 44.695312 31.855469 C 44.429688 31.800781 44.195312 31.648438 44.039062 31.429688 Z M 44.039062 31.429688 "/>
<path style=" stroke:none;fill-rule:nonzero;fill:rgb(96.862745%,89.411765%,80.392157%);fill-opacity:1;" d="M 43.851562 31.007812 C 43.757812 30.199219 43.882812 29.382812 44.207031 28.636719 C 45.492188 25.464844 48.503906 23.324219 51.925781 23.152344 C 52.367188 23.222656 52.789062 23.375 53.175781 23.601562 C 52.238281 21.917969 50.363281 20.476562 46.613281 23.011719 C 42.429688 25.867188 42.808594 29.855469 43.570312 30.617188 C 43.683594 30.734375 43.777344 30.863281 43.851562 31.007812 Z M 43.851562 31.007812 "/>
<path style=" stroke:none;fill-rule:nonzero;fill:rgb(28.627451%,44.705882%,54.509804%);fill-opacity:1;" d="M 18.277344 85.558594 L 34.734375 78.207031 C 33.527344 76.804688 31.363281 74.144531 30.984375 74.277344 C 24.667969 77.085938 18.769531 80.75 13.453125 85.167969 C 14.410156 87.230469 15.253906 89.34375 15.984375 91.5 L 19.632812 91.5 C 18.867188 87.914062 18.277344 85.558594 18.277344 85.558594 Z M 18.277344 85.558594 "/>
<path style=" stroke:none;fill-rule:nonzero;fill:rgb(20%,31.372549%,38.039216%);fill-opacity:1;" d="M 84.375 91.585938 C 85.054688 89.472656 85.625 87.324219 86.085938 85.152344 C 86.199219 84.585938 86.417969 83.667969 86.574219 82.789062 L 77.554688 76.089844 C 79.292969 79.941406 79.441406 84.320312 77.960938 88.277344 C 78.273438 89.441406 79.382812 89.886719 79.835938 90.933594 C 79.730469 91.121094 79.625 91.304688 79.523438 91.492188 L 84.136719 91.492188 C 84.222656 91.5 84.304688 91.53125 84.375 91.585938 Z M 84.375 91.585938 "/>
<path style=" stroke:none;fill-rule:nonzero;fill:rgb(20%,31.372549%,38.039216%);fill-opacity:1;" d="M 76.378906 87.730469 C 76.632812 87.375 76.816406 86.96875 76.914062 86.539062 C 76.816406 86.96875 76.632812 87.375 76.378906 87.730469 Z M 76.378906 87.730469 "/>
<path style=" stroke:none;fill-rule:nonzero;fill:rgb(20%,31.372549%,38.039216%);fill-opacity:1;" d="M 73.804688 74.832031 C 74.296875 74.570312 74.851562 74.457031 75.410156 74.5 L 74.664062 73.945312 C 74.339844 74.199219 74.050781 74.5 73.804688 74.832031 Z M 73.804688 74.832031 "/>
<path style=" stroke:none;fill-rule:nonzero;fill:rgb(28.627451%,44.705882%,54.509804%);fill-opacity:1;" d="M 86.738281 80.871094 C 86.507812 79.195312 84.238281 77.949219 83.074219 76.914062 C 80.9375 75 79.601562 73.3125 77.378906 71.523438 C 76.585938 72.445312 75.671875 73.261719 74.664062 73.945312 L 75.40625 74.5 C 76.335938 74.652344 77.136719 75.246094 77.550781 76.09375 L 86.5625 82.789062 C 86.707031 82.160156 86.765625 81.515625 86.738281 80.871094 Z M 86.738281 80.871094 "/>
<path style=" stroke:none;fill-rule:nonzero;fill:rgb(100%,100%,100%);fill-opacity:1;" d="M 64.289062 91.25 C 64.289062 91.328125 64.300781 91.410156 64.316406 91.488281 L 65.8125 91.488281 C 65.8125 90.914062 66.277344 90.445312 66.851562 90.445312 C 67.429688 90.445312 67.894531 90.914062 67.894531 91.488281 L 70.3125 91.488281 L 70.3125 91.394531 C 69.457031 90.945312 67.585938 89.972656 66.5625 89.539062 C 65.238281 88.984375 64.289062 91.25 64.289062 91.25 Z M 64.289062 91.25 "/>
<path style=" stroke:none;fill-rule:nonzero;fill:rgb(86.27451%,85.098039%,84.705882%);fill-opacity:1;" d="M 64.289062 91.25 C 64.289062 91.25 65.226562 88.96875 66.570312 89.539062 C 67.574219 89.96875 69.445312 90.941406 70.320312 91.390625 C 70.351562 90.703125 70.382812 90.015625 70.425781 89.328125 C 68.492188 89.449219 67.421875 87.582031 66.070312 87.4375 C 64.886719 87.308594 63.882812 88.796875 62.351562 88.152344 C 61.996094 88.539062 61.679688 88.960938 61.320312 89.34375 C 61.875 90.023438 62.386719 90.738281 62.847656 91.484375 L 64.335938 91.484375 C 64.3125 91.40625 64.296875 91.328125 64.289062 91.25 Z M 64.289062 91.25 "/>
<path style=" stroke:none;fill-rule:nonzero;fill:rgb(100%,100%,100%);fill-opacity:1;" d="M 45.347656 78.652344 C 42.929688 78.648438 40.53125 78.222656 38.257812 77.402344 C 38.074219 77.578125 37.976562 77.820312 37.988281 78.074219 C 37.996094 78.324219 38.113281 78.558594 38.308594 78.71875 C 40.4375 79.640625 42.691406 80.25 44.996094 80.523438 C 45.222656 79.925781 45.339844 79.292969 45.347656 78.652344 Z M 45.347656 78.652344 "/>
<path style=" stroke:none;fill-rule:nonzero;fill:rgb(86.27451%,85.098039%,84.705882%);fill-opacity:1;" d="M 44.867188 81.464844 C 44.871094 81.148438 44.914062 80.835938 44.992188 80.527344 C 42.6875 80.253906 40.4375 79.644531 38.304688 78.722656 C 40.203125 80.21875 42.46875 81.167969 44.867188 81.464844 Z M 44.867188 81.464844 "/>
<path style=" stroke:none;fill-rule:nonzero;fill:rgb(82.745098%,21.960784%,20%);fill-opacity:1;" d="M 76.914062 86.539062 C 77.125 85.652344 77.203125 84.734375 77.144531 83.820312 C 77.078125 82.371094 76.867188 80.925781 76.519531 79.515625 C 75.464844 79.386719 74.402344 79.441406 73.367188 79.667969 C 72.429688 79.859375 71.460938 80.050781 71.273438 81.191406 C 71.085938 82.332031 71.65625 82.902344 71.085938 83.851562 C 70.511719 84.804688 69.5625 84.234375 68.613281 84.789062 C 67.964844 85.179688 68.375 86.179688 68.703125 86.785156 C 71.226562 87.359375 73.800781 87.671875 76.386719 87.722656 C 76.636719 87.367188 76.816406 86.964844 76.914062 86.539062 Z M 76.914062 86.539062 "/>
<path style=" stroke:none;fill-rule:nonzero;fill:rgb(82.745098%,21.960784%,20%);fill-opacity:1;" d="M 48.632812 91.308594 C 48.679688 91.445312 48.734375 91.585938 48.777344 91.710938 C 48.820312 91.835938 48.867188 92 48.910156 92.144531 L 48.882812 91.777344 Z M 48.632812 91.308594 "/>
<path style=" stroke:none;fill-rule:nonzero;fill:rgb(82.745098%,21.960784%,20%);fill-opacity:1;" d="M 61.132812 87.265625 C 61.15625 86.714844 61.175781 86.167969 61.199219 85.617188 C 60.207031 85.925781 59.132812 85.84375 58.199219 85.386719 C 55.273438 83.789062 58.042969 84.261719 57.007812 82.144531 C 55.820312 81.511719 54.519531 81.125 53.179688 81.003906 C 49.34375 81.003906 47.867188 80.230469 48.28125 84.65625 C 48.496094 87.03125 48.691406 89.402344 48.878906 91.78125 C 49.191406 92.367188 49.472656 92.898438 49.695312 93.34375 C 51.703125 93.148438 53.652344 92.554688 55.425781 91.597656 C 57.40625 90.257812 59.3125 88.8125 61.132812 87.265625 Z M 61.132812 87.265625 "/>
<path style=" stroke:none;fill-rule:nonzero;fill:rgb(82.745098%,21.960784%,20%);fill-opacity:1;" d="M 62.585938 85 C 62.648438 85.277344 62.71875 85.589844 62.785156 85.96875 C 63.554688 86.382812 64.496094 86.296875 65.183594 85.753906 C 65.867188 85.207031 66.160156 84.308594 65.929688 83.464844 C 65.699219 82.621094 64.988281 81.996094 64.121094 81.875 C 64.335938 83.140625 63.714844 84.398438 62.585938 85 Z M 62.585938 85 "/>
<path style=" stroke:none;fill-rule:nonzero;fill:rgb(93.72549%,23.921569%,22.745098%);fill-opacity:1;" d="M 68.601562 84.804688 C 69.539062 84.230469 70.507812 84.804688 71.074219 83.867188 C 71.644531 82.929688 71.074219 82.34375 71.265625 81.203125 C 71.457031 80.0625 72.40625 79.871094 73.355469 79.679688 C 74.390625 79.453125 75.457031 79.402344 76.507812 79.527344 C 76.386719 78.746094 76.003906 78.027344 75.421875 77.492188 C 73.085938 76.128906 68.996094 80.070312 67.09375 80.90625 L 66.914062 80.976562 C 67.199219 81.523438 67.382812 82.113281 67.460938 82.722656 C 67.882812 82.617188 68.316406 82.574219 68.75 82.589844 C 69.039062 82.601562 69.328125 82.636719 69.613281 82.695312 C 69.753906 82.722656 69.890625 82.757812 70.027344 82.792969 C 70.289062 82.867188 70.542969 82.964844 70.789062 83.082031 C 69.992188 83.113281 69.199219 83.21875 68.421875 83.394531 C 68.199219 83.457031 67.988281 83.558594 67.796875 83.691406 C 67.710938 84.625 67.675781 85.5625 67.6875 86.503906 C 68.015625 86.597656 68.351562 86.683594 68.695312 86.765625 C 68.367188 86.195312 67.957031 85.191406 68.601562 84.804688 Z M 68.601562 84.804688 "/>
<path style=" stroke:none;fill-rule:nonzero;fill:rgb(93.72549%,23.921569%,22.745098%);fill-opacity:1;" d="M 48.910156 92.140625 C 49.070312 92.710938 49.207031 93.226562 49.699219 93.34375 C 49.476562 92.894531 49.191406 92.367188 48.882812 91.78125 Z M 48.910156 92.140625 "/>
<path style=" stroke:none;fill-rule:nonzero;fill:rgb(93.72549%,23.921569%,22.745098%);fill-opacity:1;" d="M 48.28125 84.652344 C 47.878906 80.226562 49.34375 81 53.179688 81 C 54.519531 81.121094 55.820312 81.511719 57.007812 82.140625 C 58.042969 84.257812 55.273438 83.789062 58.199219 85.382812 C 59.132812 85.839844 60.207031 85.921875 61.199219 85.617188 L 61.199219 85.417969 C 60.300781 84.964844 59.332031 84.660156 58.335938 84.511719 C 57.953125 84.453125 57.566406 84.417969 57.179688 84.398438 C 57.46875 84.257812 57.773438 84.148438 58.085938 84.070312 C 59.070312 83.914062 60.023438 83.617188 60.917969 83.191406 C 60.917969 82.945312 60.9375 82.695312 60.945312 82.453125 C 60.738281 82.4375 60.527344 82.40625 60.320312 82.367188 C 60.136719 82.332031 59.949219 82.289062 59.769531 82.230469 C 59.449219 82.128906 59.140625 81.996094 58.851562 81.835938 C 58.292969 81.523438 57.816406 81.160156 57.210938 80.828125 C 54.84375 79.558594 52.308594 78.632812 49.683594 78.074219 C 46.804688 77.523438 46.78125 81.527344 46.902344 84.476562 C 46.902344 84.789062 46.929688 85.078125 46.945312 85.351562 C 47.207031 87.40625 47.78125 89.410156 48.644531 91.289062 L 48.890625 91.757812 C 48.695312 89.402344 48.496094 87.027344 48.28125 84.652344 Z M 48.28125 84.652344 "/>
<path style=" stroke:none;fill-rule:nonzero;fill:rgb(93.72549%,23.921569%,22.745098%);fill-opacity:1;" d="M 64.125 81.875 C 63.46875 81.890625 62.832031 82.105469 62.304688 82.5 C 62.261719 82.929688 62.269531 83.359375 62.328125 83.789062 C 62.363281 84.035156 62.414062 84.273438 62.476562 84.53125 L 62.574219 84.941406 L 62.574219 84.992188 C 63.710938 84.394531 64.332031 83.140625 64.125 81.875 Z M 64.125 81.875 "/>
<path style=" stroke:none;fill-rule:nonzero;fill:rgb(13.72549%,12.156863%,12.54902%);fill-opacity:1;" d="M 44.207031 28.636719 C 43.882812 29.382812 43.757812 30.199219 43.851562 31.007812 C 43.886719 31.160156 43.949219 31.304688 44.039062 31.429688 C 44.199219 31.648438 44.433594 31.800781 44.695312 31.855469 C 46.257812 28.355469 48.84375 24.980469 54.023438 26.1875 C 54.300781 25.742188 54.367188 25.191406 54.203125 24.695312 C 54.035156 24.195312 53.660156 23.792969 53.167969 23.601562 C 52.785156 23.375 52.359375 23.222656 51.917969 23.152344 C 48.5 23.324219 45.492188 25.464844 44.207031 28.636719 Z M 44.207031 28.636719 "/>
<path style=" stroke:none;fill-rule:nonzero;fill:rgb(13.72549%,12.156863%,12.54902%);fill-opacity:1;" d="M 75.789062 39.460938 C 75.6875 43.597656 82.191406 41.558594 83.179688 39.253906 C 81.78125 36.960938 80.558594 34.570312 79.519531 32.097656 L 79.273438 32.097656 C 79.246094 32.511719 79.246094 32.929688 79.273438 33.347656 C 79.351562 34.324219 79.570312 35.285156 79.925781 36.199219 C 80.222656 37 80.566406 37.761719 80.863281 38.5625 C 79.621094 39.335938 77.1875 38.84375 75.789062 39.460938 Z M 75.789062 39.460938 "/>
<path style=" stroke:none;fill-rule:nonzero;fill:rgb(13.72549%,12.156863%,12.54902%);fill-opacity:1;" d="M 59.167969 39.914062 C 57.644531 41.398438 54.898438 40.164062 52.855469 40.070312 C 50.910156 43.148438 56.664062 43.726562 59.132812 43 C 59.953125 42.660156 60.652344 42.078125 61.136719 41.332031 C 61.820312 39.402344 60.441406 38.558594 59.726562 37.867188 C 58.429688 36.125 57.402344 34.195312 56.675781 32.148438 C 56.53125 32.597656 56.476562 33.070312 56.523438 33.539062 C 56.757812 35.183594 57.316406 36.765625 58.164062 38.195312 C 58.519531 38.851562 58.871094 39.441406 59.167969 39.914062 Z M 59.167969 39.914062 "/>
<path style=" stroke:none;fill-rule:nonzero;fill:rgb(13.72549%,12.156863%,12.54902%);fill-opacity:1;" d="M 64.390625 57.234375 C 69.421875 57.535156 74.386719 55.976562 78.347656 52.859375 C 78.199219 51.921875 79.472656 50.234375 79.117188 48.828125 C 78.996094 48.34375 77.894531 47.640625 77.226562 46.910156 C 74.066406 43.679688 71.386719 40.011719 69.277344 36.015625 C 69.113281 35.632812 69.011719 33.515625 67.867188 34.359375 C 67.726562 39.492188 71.539062 43.734375 74.382812 47.171875 C 75.773438 48.84375 77.445312 49.800781 75.90625 52.398438 C 73.40625 53.335938 69.398438 56.054688 65.941406 55.460938 C 64.757812 55.257812 64.507812 54.320312 64.304688 53.371094 C 64.230469 52.984375 64.128906 52.605469 63.992188 52.238281 C 63.953125 52.128906 63.90625 52.023438 63.851562 51.925781 C 62.710938 53.589844 62.9375 55.835938 64.390625 57.234375 Z M 64.390625 57.234375 "/>
<path style=" stroke:none;fill-rule:nonzero;fill:rgb(13.72549%,12.156863%,12.54902%);fill-opacity:1;" d="M 23.75 44.0625 C 23.570312 44.160156 23.40625 44.273438 23.253906 44.410156 C 22.582031 45.054688 22.171875 45.921875 22.097656 46.851562 C 22.238281 46.75 22.371094 46.636719 22.488281 46.507812 C 22.964844 46.023438 23.464844 45.394531 24.363281 45.832031 C 23.355469 48.085938 23.578125 50.699219 24.957031 52.746094 C 24.957031 50.457031 24.589844 46.539062 26.546875 46.652344 C 27.914062 46.738281 28.195312 49.664062 29.359375 50.332031 C 30.054688 47.710938 28.695312 44.984375 26.179688 43.96875 C 25.394531 43.664062 24.511719 43.695312 23.75 44.0625 Z M 23.75 44.0625 "/>
<path style=" stroke:none;fill-rule:nonzero;fill:rgb(13.72549%,12.156863%,12.54902%);fill-opacity:1;" d="M 71.460938 58.984375 C 71.316406 60.085938 71.316406 61.203125 71.460938 62.304688 C 75.660156 61.988281 79.285156 59.238281 80.71875 55.277344 C 77.894531 57.085938 74.753906 58.339844 71.460938 58.984375 Z M 71.460938 58.984375 "/>
<path style=" stroke:none;fill-rule:nonzero;fill:rgb(13.72549%,12.156863%,12.54902%);fill-opacity:1;" d="M 70.21875 62.5 C 70.257812 61.382812 70.179688 60.265625 69.976562 59.167969 C 65.375 59.566406 60.738281 58.96875 56.382812 57.414062 C 57.867188 61.386719 64.558594 62.789062 70.21875 62.5 Z M 70.21875 62.5 "/>
<path style=" stroke:none;fill-rule:nonzero;fill:rgb(13.72549%,12.156863%,12.54902%);fill-opacity:1;" d="M 55.769531 60.59375 C 52.910156 60.59375 55.320312 62.1875 55.804688 62.808594 C 56.820312 64.558594 58.1875 66.078125 59.820312 67.273438 C 63.28125 68.476562 67.050781 68.492188 70.523438 67.316406 C 71.304688 66.914062 71.902344 66.234375 72.199219 65.414062 C 65.707031 65.570312 58.007812 66.214844 55.769531 60.59375 Z M 55.769531 60.59375 "/>
<path style=" stroke:none;fill-rule:nonzero;fill:rgb(50.588235%,69.019608%,76.862745%);fill-opacity:1;" d="M 78 91.5 C 77.261719 90.320312 76.09375 89.476562 74.742188 89.148438 C 73.773438 88.949219 72.761719 89.082031 71.875 89.523438 C 71.851562 90.148438 71.820312 90.820312 71.777344 91.496094 Z M 78 91.5 "/>
<path style=" stroke:none;fill-rule:nonzero;fill:rgb(94.117647%,83.921569%,71.764706%);fill-opacity:1;" d="M 68.660156 77.339844 C 66.515625 77.53125 63.992188 78.507812 61.621094 78.648438 C 61.40625 78.648438 61.191406 78.667969 60.976562 78.667969 C 60.765625 78.667969 60.554688 78.667969 60.351562 78.636719 C 59.9375 78.601562 59.527344 78.519531 59.128906 78.398438 C 58.929688 78.339844 58.730469 78.265625 58.539062 78.179688 C 58.539062 78.34375 58.320312 78.285156 58.285156 78.417969 C 58.550781 78.625 58.804688 78.8125 59.054688 78.976562 C 59.304688 79.144531 59.554688 79.289062 59.800781 79.425781 C 60.269531 79.679688 60.769531 79.878906 61.285156 80.019531 C 62.117188 80.226562 62.976562 80.320312 63.835938 80.300781 C 64.148438 80.300781 64.496094 80.300781 64.855469 80.273438 C 66.152344 79.324219 67.304688 78.222656 68.660156 77.339844 Z M 68.660156 77.339844 "/>
<path style=" stroke:none;fill-rule:nonzero;fill:rgb(50.588235%,69.019608%,76.862745%);fill-opacity:1;" d="M 59.644531 90.773438 L 58.546875 91.503906 L 60.195312 91.503906 C 60.015625 91.253906 59.832031 91.011719 59.644531 90.773438 Z M 59.644531 90.773438 "/>
<path style=" stroke:none;fill-rule:nonzero;fill:rgb(13.72549%,12.156863%,12.54902%);fill-opacity:1;" d="M 14.628906 93.027344 L 14.628906 91.980469 C 14.628906 91.71875 14.84375 91.503906 15.105469 91.503906 L 15.992188 91.503906 C 15.261719 89.347656 14.417969 87.234375 13.460938 85.171875 C 18.773438 80.753906 24.675781 77.089844 30.992188 74.28125 C 31.359375 74.132812 33.523438 76.808594 34.742188 78.210938 C 34.96875 78.496094 35.222656 78.765625 35.492188 79.011719 C 38.558594 81 41.785156 82.730469 45.136719 84.183594 C 45.464844 86.25 45.960938 88.285156 46.625 90.273438 C 46.746094 90.664062 46.867188 91.085938 46.992188 91.503906 L 47.5 91.503906 C 47.765625 91.503906 47.976562 91.71875 47.976562 91.980469 L 47.976562 92.476562 L 48.414062 92.476562 C 48.675781 92.476562 48.890625 92.6875 48.890625 92.953125 L 48.890625 93.75 L 54.175781 93.75 L 54.175781 92.953125 C 54.175781 92.6875 54.390625 92.476562 54.652344 92.476562 L 57.089844 92.476562 L 57.089844 91.980469 C 57.089844 91.71875 57.304688 91.503906 57.570312 91.503906 L 58.558594 91.503906 L 59.65625 90.773438 C 59.84375 91.011719 60.027344 91.253906 60.207031 91.503906 L 62.839844 91.503906 C 62.378906 90.757812 61.867188 90.042969 61.3125 89.363281 C 61.671875 88.980469 61.992188 88.5625 62.34375 88.171875 C 63.882812 88.816406 64.882812 87.328125 66.0625 87.457031 C 67.414062 87.601562 68.488281 89.46875 70.417969 89.347656 C 70.375 90.035156 70.34375 90.722656 70.3125 91.410156 L 70.3125 91.503906 L 71.792969 91.503906 C 71.832031 90.824219 71.867188 90.164062 71.890625 89.527344 C 72.777344 89.089844 73.789062 88.957031 74.757812 89.152344 C 76.109375 89.484375 77.277344 90.328125 78.015625 91.507812 L 79.519531 91.507812 C 79.625 91.320312 79.734375 91.132812 79.832031 90.945312 C 79.382812 89.898438 78.285156 89.457031 77.957031 88.289062 C 79.433594 84.332031 79.289062 79.953125 77.550781 76.101562 C 77.136719 75.257812 76.335938 74.664062 75.40625 74.507812 C 74.851562 74.464844 74.292969 74.582031 73.800781 74.839844 C 74.046875 74.507812 74.335938 74.210938 74.660156 73.957031 C 75.667969 73.273438 76.582031 72.457031 77.375 71.53125 C 79.601562 73.320312 80.941406 75.007812 83.074219 76.921875 C 84.230469 77.960938 86.511719 79.203125 86.738281 80.878906 C 86.765625 81.523438 86.710938 82.167969 86.570312 82.796875 C 86.410156 83.675781 86.195312 84.59375 86.082031 85.160156 C 85.621094 87.328125 85.054688 89.472656 84.375 91.585938 C 84.511719 91.667969 84.597656 91.820312 84.601562 91.980469 L 84.601562 93.75 L 85.75 93.75 C 86.554688 91.226562 87.347656 88.640625 88.144531 85.972656 C 89.050781 83.804688 89.558594 81.488281 89.636719 79.136719 C 89.394531 77.210938 86.386719 75.183594 84.804688 73.65625 C 83.925781 72.808594 79.824219 69.695312 79.585938 68.53125 C 79.351562 67.367188 81.257812 64.851562 81.871094 63.574219 C 82.667969 61.769531 83.316406 59.898438 83.8125 57.988281 C 87.039062 46.652344 87.367188 31.078125 82.753906 21.761719 C 80.214844 17.621094 76.929688 13.988281 73.066406 11.050781 C 65.878906 5.605469 52.554688 5.003906 43.882812 8.195312 C 41.507812 8.96875 39.207031 9.953125 37.007812 11.132812 C 31.324219 14.460938 25.292969 16.695312 23.609375 23.40625 C 19.460938 25.28125 18.207031 30.59375 18.414062 36.742188 C 18.699219 38.003906 18.855469 39.289062 18.882812 40.578125 C 18.765625 41.152344 17.988281 41.886719 17.832031 42.257812 C 16.230469 47.082031 16.933594 52.371094 19.734375 56.609375 C 21.285156 58.917969 23.71875 60.484375 26.460938 60.9375 C 26.589844 62.753906 27.066406 64.527344 27.859375 66.164062 C 28.390625 67.328125 30.375 69.421875 29.644531 70.910156 C 28.222656 72.109375 26.652344 73.125 24.972656 73.929688 C 21.351562 76.101562 18.722656 77.429688 15.390625 79.835938 C 13.226562 81.398438 9.851562 81.589844 10.390625 85.179688 C 11.039062 87.855469 11.882812 90.480469 12.914062 93.03125 C 12.992188 93.273438 13.082031 93.515625 13.164062 93.757812 L 14.632812 93.757812 Z M 40.726562 13.609375 C 40.570312 13.792969 40.40625 13.96875 40.226562 14.128906 C 39.207031 14.882812 38.222656 15.691406 37.289062 16.554688 C 36.121094 17.84375 34.820312 21.304688 33.273438 21.691406 C 32.492188 21.738281 31.710938 21.707031 30.9375 21.601562 C 30.441406 21.636719 29.953125 21.730469 29.476562 21.875 C 28.375 22.300781 27.242188 22.640625 26.089844 22.890625 C 28.429688 17.78125 35.714844 13.648438 41.402344 12.039062 C 41.714844 11.949219 41.992188 12.164062 42.25 12.441406 C 42.214844 13.335938 41.324219 13.320312 40.726562 13.609375 Z M 33.273438 25.171875 C 34.210938 29.925781 31.519531 35.339844 32.671875 40.363281 C 33.0625 42.070312 34.421875 44.71875 32.253906 44.777344 C 32.09375 42.515625 30.800781 40.488281 28.820312 39.386719 C 26.835938 38.285156 24.429688 38.257812 22.425781 39.320312 C 22.191406 39.429688 21.964844 39.558594 21.742188 39.695312 C 21.429688 36.007812 20.914062 30.832031 23.425781 28.066406 C 25.859375 25.417969 29.234375 23.824219 32.828125 23.632812 C 33.023438 24.132812 33.171875 24.652344 33.273438 25.183594 Z M 22.667969 55.625 C 20.625 53.410156 19.488281 50.511719 19.476562 47.5 C 19.53125 45.757812 20.296875 44.117188 21.597656 42.957031 C 22.894531 41.796875 24.613281 41.222656 26.351562 41.367188 C 28.488281 41.601562 29.519531 43.472656 30.125 45.546875 C 30.292969 46.132812 30.4375 46.730469 30.550781 47.316406 C 32.128906 47.398438 34.410156 47.246094 35.15625 46.015625 C 35.050781 43.007812 33.652344 40.601562 33.75 37.835938 C 33.960938 35.449219 34.367188 33.085938 34.960938 30.765625 C 35.671875 28.152344 35.535156 25.382812 34.578125 22.851562 C 36.914062 17.554688 43.761719 13.378906 48.828125 10.851562 C 55.105469 7.726562 65.101562 10.226562 71.015625 13.554688 C 71.550781 13.863281 72.0625 14.207031 72.546875 14.585938 C 74.285156 16.015625 75.835938 17.65625 77.167969 19.46875 C 77.898438 20.40625 78.601562 21.34375 79.296875 22.246094 C 76.273438 21.351562 73.671875 22.660156 73.570312 24.953125 C 73.558594 25.210938 73.574219 25.46875 73.621094 25.722656 C 76.433594 23.15625 81.207031 25.695312 82.621094 28.535156 C 83.796875 32 84.328125 35.648438 84.183594 39.304688 C 84.878906 48.769531 82.53125 58.207031 77.480469 66.242188 C 76.375 68.226562 74.933594 70.003906 73.214844 71.492188 C 68.761719 74.617188 61.992188 77.457031 56.195312 75.511719 C 48.539062 72.941406 45.054688 67.835938 40.84375 61.992188 C 41.359375 65.210938 42.988281 68.148438 45.445312 70.292969 C 47.289062 72.609375 49.605469 74.503906 52.242188 75.851562 C 50.140625 75.355469 46.929688 75.199219 46.039062 77.101562 C 44.417969 77.011719 42.804688 76.84375 41.199219 76.59375 C 38.484375 76.378906 35.980469 75.0625 34.261719 72.949219 C 32.199219 69.710938 30.671875 66.160156 29.746094 62.433594 C 29.523438 61.585938 29.390625 60.710938 29.355469 59.835938 C 29.632812 58.339844 32.289062 57.6875 31.230469 55.601562 C 29.300781 55.582031 28.867188 57.355469 27.09375 57.53125 C 25.402344 57.621094 23.765625 56.917969 22.667969 55.625 Z M 62.574219 84.9375 L 62.476562 84.527344 C 62.414062 84.269531 62.367188 84.03125 62.328125 83.785156 C 62.269531 83.359375 62.261719 82.925781 62.304688 82.496094 C 62.832031 82.105469 63.46875 81.886719 64.125 81.871094 C 64.992188 81.992188 65.703125 82.617188 65.933594 83.460938 C 66.164062 84.304688 65.867188 85.203125 65.183594 85.75 C 64.5 86.292969 63.558594 86.378906 62.789062 85.964844 C 62.722656 85.585938 62.652344 85.273438 62.585938 84.996094 Z M 38.257812 77.378906 C 40.53125 78.199219 42.929688 78.621094 45.347656 78.628906 C 45.339844 79.269531 45.222656 79.902344 44.996094 80.503906 C 44.914062 80.808594 44.871094 81.125 44.867188 81.441406 C 42.46875 81.136719 40.199219 80.183594 38.304688 78.683594 C 38.121094 78.523438 38.007812 78.292969 38 78.050781 C 37.992188 77.804688 38.082031 77.566406 38.257812 77.394531 Z M 61.277344 80 C 60.761719 79.859375 60.265625 79.660156 59.792969 79.40625 C 59.550781 79.273438 59.304688 79.125 59.050781 78.960938 C 58.796875 78.792969 58.542969 78.605469 58.277344 78.398438 C 58.3125 78.265625 58.523438 78.324219 58.535156 78.164062 C 58.726562 78.246094 58.921875 78.320312 59.121094 78.382812 C 59.519531 78.503906 59.929688 78.582031 60.347656 78.617188 C 60.554688 78.636719 60.765625 78.648438 60.972656 78.648438 C 61.179688 78.652344 61.398438 78.648438 61.617188 78.632812 C 63.988281 78.488281 66.507812 77.511719 68.652344 77.320312 C 67.300781 78.207031 66.152344 79.308594 64.847656 80.253906 C 64.488281 80.273438 64.148438 80.28125 63.824219 80.28125 C 62.96875 80.308594 62.109375 80.21875 61.277344 80.015625 Z M 55.429688 91.582031 C 53.65625 92.539062 51.707031 93.132812 49.699219 93.328125 C 49.207031 93.210938 49.074219 92.703125 48.910156 92.125 C 48.867188 91.980469 48.828125 91.835938 48.777344 91.691406 C 48.726562 91.542969 48.683594 91.425781 48.632812 91.289062 C 47.769531 89.410156 47.195312 87.40625 46.929688 85.351562 C 46.929688 85.078125 46.902344 84.785156 46.890625 84.476562 C 46.769531 81.527344 46.792969 77.523438 49.671875 78.074219 C 52.296875 78.632812 54.832031 79.558594 57.195312 80.828125 C 57.804688 81.160156 58.28125 81.53125 58.835938 81.835938 C 59.128906 81.996094 59.4375 82.128906 59.757812 82.230469 C 59.9375 82.289062 60.121094 82.332031 60.308594 82.367188 C 60.515625 82.40625 60.726562 82.4375 60.933594 82.453125 C 60.933594 82.695312 60.914062 82.945312 60.90625 83.191406 C 60.011719 83.617188 59.054688 83.914062 58.074219 84.070312 C 57.761719 84.148438 57.457031 84.257812 57.164062 84.398438 C 57.554688 84.417969 57.941406 84.453125 58.324219 84.511719 C 59.320312 84.660156 60.289062 84.964844 61.1875 85.417969 L 61.1875 85.617188 C 61.167969 86.164062 61.144531 86.714844 61.121094 87.261719 C 59.304688 88.808594 57.402344 90.257812 55.429688 91.597656 Z M 68.695312 86.78125 C 68.351562 86.699219 68.015625 86.613281 67.6875 86.519531 C 67.675781 85.578125 67.710938 84.640625 67.796875 83.707031 C 67.988281 83.574219 68.199219 83.472656 68.421875 83.410156 C 69.199219 83.234375 69.992188 83.128906 70.789062 83.097656 C 70.542969 82.980469 70.289062 82.882812 70.027344 82.808594 C 69.894531 82.773438 69.753906 82.738281 69.613281 82.710938 C 69.328125 82.648438 69.039062 82.605469 68.75 82.589844 C 68.324219 82.570312 67.894531 82.609375 67.476562 82.710938 C 67.398438 82.101562 67.214844 81.511719 66.929688 80.964844 L 67.109375 80.894531 C 69.011719 80.054688 73.101562 76.117188 75.4375 77.476562 C 76.019531 78.015625 76.402344 78.734375 76.523438 79.515625 C 76.875 80.925781 77.085938 82.371094 77.148438 83.820312 C 77.207031 84.734375 77.132812 85.652344 76.921875 86.539062 C 76.820312 86.96875 76.640625 87.375 76.382812 87.730469 C 73.796875 87.683594 71.21875 87.367188 68.695312 86.792969 Z M 68.695312 86.78125 "/>
<path style=" stroke:none;fill-rule:nonzero;fill:rgb(96.862745%,89.411765%,80.392157%);fill-opacity:1;" d="M 54.78125 58.945312 C 52.855469 58.007812 51.480469 58.523438 51.230469 58.855469 C 50.757812 59.480469 51.742188 62.9375 51.742188 62.9375 L 52.679688 63.128906 C 52.5 59.324219 54.78125 58.945312 54.78125 58.945312 Z M 54.78125 58.945312 "/>
<path style=" stroke:none;fill-rule:nonzero;fill:rgb(11.372549%,9.803922%,9.803922%);fill-opacity:1;" d="M 66.851562 90.503906 C 66.296875 90.503906 65.835938 90.941406 65.8125 91.5 L 67.894531 91.5 C 67.867188 90.941406 67.410156 90.503906 66.851562 90.503906 Z M 66.851562 90.503906 "/>
<path style=" stroke:none;fill-rule:nonzero;fill:rgb(13.72549%,12.156863%,12.54902%);fill-opacity:1;" d="M 48.882812 92.953125 C 48.882812 92.6875 48.667969 92.476562 48.402344 92.476562 L 47.96875 92.476562 L 47.96875 93.027344 C 47.96875 93.292969 47.753906 93.507812 47.492188 93.507812 L 15.105469 93.507812 C 14.84375 93.507812 14.628906 93.292969 14.628906 93.027344 L 14.628906 93.75 L 48.882812 93.75 Z M 48.882812 92.953125 "/>
<path style=" stroke:none;fill-rule:nonzero;fill:rgb(13.72549%,12.156863%,12.54902%);fill-opacity:1;" d="M 84.117188 93.507812 L 57.554688 93.507812 C 57.292969 93.507812 57.078125 93.292969 57.078125 93.027344 L 57.078125 92.476562 L 54.640625 92.476562 C 54.375 92.476562 54.164062 92.6875 54.164062 92.953125 L 54.164062 93.75 L 84.589844 93.75 L 84.589844 93.027344 C 84.589844 93.289062 84.378906 93.503906 84.117188 93.507812 Z M 84.117188 93.507812 "/>
<path style=" stroke:none;fill-rule:nonzero;fill:rgb(13.72549%,12.156863%,12.54902%);fill-opacity:1;" d="M 15.105469 93.507812 L 47.5 93.507812 C 47.765625 93.507812 47.976562 93.292969 47.976562 93.027344 L 47.976562 91.980469 C 47.976562 91.71875 47.765625 91.503906 47.5 91.503906 L 15.105469 91.503906 C 14.84375 91.503906 14.628906 91.71875 14.628906 91.980469 L 14.628906 93.027344 C 14.628906 93.292969 14.84375 93.507812 15.105469 93.507812 Z M 15.105469 93.507812 "/>
<path style=" stroke:none;fill-rule:nonzero;fill:rgb(13.72549%,12.156863%,12.54902%);fill-opacity:1;" d="M 57.082031 93.027344 C 57.082031 93.292969 57.296875 93.507812 57.558594 93.507812 L 84.121094 93.507812 C 84.386719 93.507812 84.601562 93.292969 84.601562 93.027344 L 84.601562 91.980469 C 84.597656 91.820312 84.511719 91.667969 84.375 91.585938 C 84.300781 91.535156 84.210938 91.503906 84.121094 91.503906 L 57.558594 91.503906 C 57.296875 91.503906 57.082031 91.71875 57.082031 91.980469 Z M 57.082031 93.027344 "/>
</g>
</svg>
