<?xml version="1.0" encoding="UTF-8"?>
<svg xmlns="http://www.w3.org/2000/svg" xmlns:xlink="http://www.w3.org/1999/xlink" width="100px" height="100px" viewBox="0 0 100 100" version="1.1">
<g id="surface1">
<path style=" stroke:none;fill-rule:nonzero;fill:rgb(96.862745%,87.45098%,11.764706%);fill-opacity:1;" d="M 15 0 L 85 0 C 93.285156 0 100 6.714844 100 15 L 100 85 C 100 93.285156 93.285156 100 85 100 L 15 100 C 6.714844 100 0 93.285156 0 85 L 0 15 C 0 6.714844 6.714844 0 15 0 Z M 15 0 "/>
<path style=" stroke:none;fill-rule:nonzero;fill:rgb(0%,0%,0%);fill-opacity:1;" d="M 63.28125 72.265625 C 65.234375 75.585938 67.96875 77.929688 72.460938 77.929688 C 76.367188 77.929688 78.90625 75.976562 78.90625 73.242188 C 78.90625 70.117188 76.367188 68.945312 72.070312 66.992188 L 69.726562 66.015625 C 62.890625 63.085938 58.398438 59.570312 58.398438 51.953125 C 58.398438 44.921875 63.671875 39.453125 72.070312 39.453125 C 78.125 39.453125 82.421875 41.601562 85.351562 47.070312 L 78.125 51.757812 C 76.5625 48.828125 74.804688 47.65625 72.070312 47.65625 C 69.335938 47.65625 67.578125 49.414062 67.578125 51.757812 C 67.578125 54.492188 69.335938 55.664062 73.4375 57.421875 L 75.78125 58.398438 C 83.789062 61.914062 88.28125 65.234375 88.28125 73.242188 C 88.28125 81.640625 81.640625 86.328125 72.65625 86.328125 C 63.867188 86.328125 58.203125 82.226562 55.46875 76.757812 Z M 30.078125 73.046875 C 31.640625 75.585938 32.8125 77.929688 36.132812 77.929688 C 39.257812 77.929688 41.210938 76.757812 41.210938 72.070312 L 41.210938 39.648438 L 50.585938 39.648438 L 50.585938 71.679688 C 50.585938 81.445312 44.921875 85.742188 36.523438 85.742188 C 28.90625 85.742188 24.609375 81.835938 22.460938 77.148438 Z M 30.078125 73.046875 "/>
</g>
</svg>
