<?xml version="1.0" encoding="UTF-8"?>
<svg xmlns="http://www.w3.org/2000/svg" xmlns:xlink="http://www.w3.org/1999/xlink" width="100px" height="100px" viewBox="0 0 100 100" version="1.1">
<g id="surface1">
<path style="fill-rule:nonzero;fill:rgb(100%,100%,100%);fill-opacity:1;stroke-width:2;stroke-linecap:butt;stroke-linejoin:miter;stroke:rgb(7.450981%,27.058825%,7.843138%);stroke-opacity:1;stroke-miterlimit:4;" d="M 12.999219 -0.999102 L 56.000781 -0.999102 C 63.731367 -0.999102 69.999102 5.268633 69.999102 12.999219 L 69.999102 56.000781 C 69.999102 63.731367 63.731367 69.999102 56.000781 69.999102 L 12.999219 69.999102 C 5.268633 69.999102 -0.999102 63.731367 -0.999102 56.000781 L -0.999102 12.999219 C -0.999102 5.268633 5.268633 -0.999102 12.999219 -0.999102 Z M 12.999219 -0.999102 " transform="matrix(1.369863,0,0,1.369863,2.739726,2.739726)"/>
<path style=" stroke:none;fill-rule:nonzero;fill:rgb(65.098041%,63.921571%,52.156866%);fill-opacity:1;" d="M 51.363281 84.558594 L 49.515625 83.929688 C 49.515625 83.929688 49.742188 74.511719 46.359375 73.835938 C 44.109375 71.222656 46.722656 -37.011719 54.832031 73.472656 C 54.832031 73.472656 52.039062 74.871094 51.542969 77.257812 C 51 79.601562 51.363281 84.558594 51.363281 84.558594 Z M 51.363281 84.558594 "/>
<path style=" stroke:none;fill-rule:nonzero;fill:rgb(28.627452%,61.56863%,29.019609%);fill-opacity:1;" d="M 52.355469 75.457031 C 52.355469 75.457031 68.53125 64.824219 64.746094 42.699219 C 61.09375 26.613281 52.488281 21.339844 51.542969 19.3125 C 50.507812 17.871094 49.515625 15.347656 49.515625 15.347656 L 50.191406 60.089844 C 50.191406 60.136719 48.792969 73.789062 52.355469 75.457031 "/>
<path style=" stroke:none;fill-rule:nonzero;fill:rgb(34.509805%,66.666669%,31.37255%);fill-opacity:1;" d="M 48.570312 76.042969 C 48.570312 76.042969 33.382812 65.679688 34.285156 47.429688 C 35.140625 29.179688 45.863281 20.214844 47.9375 18.59375 C 49.289062 17.152344 49.335938 16.609375 49.425781 15.167969 C 50.371094 17.195312 50.191406 45.492188 50.324219 48.828125 C 50.730469 61.667969 49.605469 73.609375 48.570312 76.042969 Z M 48.570312 76.042969 "/>
</g>
</svg>
