<?xml version="1.0" encoding="UTF-8"?>
<svg xmlns="http://www.w3.org/2000/svg" xmlns:xlink="http://www.w3.org/1999/xlink" width="100px" height="100px" viewBox="0 0 100 100" version="1.1">
<g id="surface1">
<path style=" stroke:none;fill-rule:nonzero;fill:rgb(0%,84.705882%,100%);fill-opacity:1;" d="M 82.21875 34.304688 C 81.183594 33.949219 80.109375 33.609375 79 33.292969 C 79.183594 32.550781 79.351562 31.816406 79.5 31.097656 C 81.933594 19.265625 80.34375 9.738281 74.902344 6.601562 C 69.683594 3.59375 61.152344 6.730469 52.535156 14.226562 C 51.707031 14.949219 50.875 15.710938 50.046875 16.511719 C 49.492188 15.984375 48.941406 15.472656 48.390625 14.980469 C 39.359375 6.964844 30.308594 3.585938 24.871094 6.730469 C 19.660156 9.75 18.117188 18.707031 20.308594 29.917969 C 20.523438 31 20.769531 32.105469 21.050781 33.230469 C 19.769531 33.59375 18.53125 33.980469 17.347656 34.394531 C 6.761719 38.085938 0 43.871094 0 49.871094 C 0 56.066406 7.257812 62.285156 18.285156 66.054688 C 19.15625 66.351562 20.058594 66.632812 20.988281 66.898438 C 20.6875 68.113281 20.425781 69.304688 20.203125 70.46875 C 18.113281 81.484375 19.746094 90.230469 24.945312 93.226562 C 30.3125 96.324219 39.324219 93.140625 48.097656 85.472656 C 48.792969 84.867188 49.488281 84.222656 50.183594 83.550781 C 51.089844 84.417969 51.992188 85.242188 52.886719 86.015625 C 61.386719 93.328125 69.78125 96.28125 74.972656 93.277344 C 80.335938 90.171875 82.082031 80.773438 79.816406 69.34375 C 79.644531 68.46875 79.441406 67.578125 79.21875 66.671875 C 79.851562 66.484375 80.472656 66.289062 81.078125 66.089844 C 92.542969 62.289062 100 56.152344 100 49.871094 C 100 43.847656 93.019531 38.023438 82.21875 34.304688 Z M 79.734375 62.035156 C 79.1875 62.214844 78.625 62.390625 78.054688 62.558594 C 76.789062 58.554688 75.082031 54.292969 72.988281 49.890625 C 74.984375 45.59375 76.625 41.386719 77.855469 37.40625 C 78.878906 37.703125 79.871094 38.015625 80.828125 38.34375 C 90.082031 41.53125 95.726562 46.242188 95.726562 49.871094 C 95.726562 53.734375 89.632812 58.753906 79.734375 62.035156 Z M 75.625 70.171875 C 76.628906 75.226562 76.769531 79.796875 76.105469 83.371094 C 75.511719 86.582031 74.3125 88.722656 72.832031 89.578125 C 69.679688 91.402344 62.941406 89.03125 55.675781 82.777344 C 54.839844 82.058594 54 81.292969 53.160156 80.484375 C 55.976562 77.402344 58.792969 73.820312 61.542969 69.839844 C 66.375 69.414062 70.941406 68.710938 75.085938 67.753906 C 75.289062 68.578125 75.46875 69.382812 75.625 70.171875 Z M 34.09375 89.261719 C 31.011719 90.351562 28.5625 90.382812 27.078125 89.527344 C 23.925781 87.707031 22.613281 80.683594 24.402344 71.265625 C 24.605469 70.1875 24.851562 69.078125 25.132812 67.945312 C 29.226562 68.851562 33.761719 69.503906 38.609375 69.894531 C 41.375 73.789062 44.273438 77.367188 47.191406 80.5 C 46.554688 81.117188 45.917969 81.703125 45.285156 82.253906 C 41.40625 85.648438 37.519531 88.054688 34.09375 89.261719 Z M 19.667969 62.011719 C 14.792969 60.34375 10.765625 58.179688 8.003906 55.8125 C 5.523438 53.691406 4.273438 51.582031 4.273438 49.871094 C 4.273438 46.230469 9.699219 41.585938 18.753906 38.425781 C 19.851562 38.042969 21.003906 37.683594 22.195312 37.34375 C 23.449219 41.414062 25.089844 45.671875 27.070312 49.972656 C 25.0625 54.339844 23.398438 58.664062 22.136719 62.785156 C 21.285156 62.539062 20.460938 62.28125 19.667969 62.011719 Z M 24.503906 29.097656 C 22.625 19.492188 23.871094 12.246094 27.011719 10.429688 C 30.359375 8.492188 37.753906 11.253906 45.550781 18.175781 C 46.050781 18.621094 46.550781 19.082031 47.054688 19.5625 C 44.148438 22.679688 41.277344 26.234375 38.535156 30.105469 C 33.832031 30.539062 29.328125 31.238281 25.191406 32.175781 C 24.929688 31.128906 24.699219 30.101562 24.503906 29.097656 Z M 67.636719 39.75 C 66.648438 38.039062 65.632812 36.371094 64.597656 34.746094 C 67.789062 35.148438 70.84375 35.6875 73.714844 36.339844 C 72.855469 39.101562 71.78125 41.992188 70.515625 44.953125 C 69.609375 43.230469 68.648438 41.492188 67.636719 39.75 Z M 50.046875 22.613281 C 52.019531 24.75 53.992188 27.132812 55.933594 29.71875 C 53.976562 29.625 51.996094 29.578125 50 29.578125 C 48.023438 29.578125 46.058594 29.625 44.113281 29.714844 C 46.054688 27.15625 48.046875 24.773438 50.046875 22.613281 Z M 32.34375 39.777344 C 31.355469 41.492188 30.414062 43.21875 29.523438 44.949219 C 28.277344 42 27.214844 39.097656 26.34375 36.296875 C 29.195312 35.65625 32.238281 35.136719 35.410156 34.738281 C 34.359375 36.378906 33.335938 38.058594 32.34375 39.777344 Z M 35.5 65.304688 C 32.226562 64.941406 29.136719 64.445312 26.285156 63.824219 C 27.167969 60.972656 28.257812 58.011719 29.527344 54.996094 C 30.421875 56.726562 31.367188 58.453125 32.363281 60.171875 C 33.375 61.921875 34.425781 63.632812 35.5 65.304688 Z M 50.164062 77.425781 C 48.140625 75.242188 46.121094 72.824219 44.148438 70.226562 C 46.0625 70.300781 48.015625 70.339844 50 70.339844 C 52.039062 70.339844 54.054688 70.292969 56.035156 70.207031 C 54.089844 72.851562 52.121094 75.273438 50.164062 77.425781 Z M 70.554688 54.84375 C 71.890625 57.890625 73.019531 60.835938 73.914062 63.640625 C 71.015625 64.300781 67.882812 64.832031 64.585938 65.230469 C 65.625 63.585938 66.648438 61.886719 67.65625 60.140625 C 68.675781 58.375 69.640625 56.605469 70.554688 54.84375 Z M 63.953125 58.007812 C 62.390625 60.71875 60.785156 63.304688 59.15625 65.746094 C 56.191406 65.957031 53.125 66.066406 50 66.066406 C 46.886719 66.066406 43.859375 65.972656 40.945312 65.78125 C 39.25 63.308594 37.613281 60.714844 36.058594 58.03125 C 34.507812 55.355469 33.082031 52.65625 31.792969 49.972656 C 33.082031 47.285156 34.503906 44.582031 36.046875 41.910156 C 37.589844 39.234375 39.214844 36.652344 40.894531 34.191406 C 43.867188 33.96875 46.917969 33.851562 50 33.851562 C 53.097656 33.851562 56.148438 33.96875 59.121094 34.195312 C 60.777344 36.636719 62.390625 39.210938 63.941406 41.890625 C 65.507812 44.597656 66.949219 47.28125 68.25 49.914062 C 66.953125 52.589844 65.515625 55.300781 63.953125 58.007812 Z M 72.765625 10.300781 C 76.117188 12.234375 77.417969 20.019531 75.3125 30.234375 C 75.179688 30.886719 75.027344 31.550781 74.863281 32.222656 C 70.714844 31.265625 66.210938 30.550781 61.496094 30.109375 C 58.746094 26.195312 55.898438 22.640625 53.039062 19.558594 C 53.808594 18.820312 54.578125 18.117188 55.339844 17.449219 C 62.722656 11.027344 69.625 8.488281 72.765625 10.300781 Z M 50 40.941406 C 54.929688 40.941406 58.929688 44.9375 58.929688 49.871094 C 58.929688 54.800781 54.929688 58.800781 50 58.800781 C 45.070312 58.800781 41.070312 54.800781 41.070312 49.871094 C 41.070312 44.9375 45.070312 40.941406 50 40.941406 Z M 50 40.941406 "/>
</g>
</svg>
