<?xml version="1.0" encoding="UTF-8"?>
<svg xmlns="http://www.w3.org/2000/svg" xmlns:xlink="http://www.w3.org/1999/xlink" width="111px" height="100px" viewBox="0 0 110 100" version="1.1">
<g id="surface1">
<path style=" stroke:none;fill-rule:evenodd;fill:rgb(99.607843%,99.607843%,99.607843%);fill-opacity:1;" d="M -0.273438 -0.273438 C 36.394531 -0.273438 73.0625 -0.273438 109.726562 -0.273438 C 109.726562 33.058594 109.726562 66.390625 109.726562 99.726562 C 73.0625 99.726562 36.394531 99.726562 -0.273438 99.726562 C -0.273438 66.390625 -0.273438 33.058594 -0.273438 -0.273438 Z M -0.273438 -0.273438 "/>
<path style=" stroke:none;fill-rule:evenodd;fill:rgb(50.196078%,72.54902%,38.039216%);fill-opacity:1;" d="M 57.449219 11.8125 C 52.351562 11.691406 47.269531 11.875 42.203125 12.363281 C 42.617188 11.941406 43.164062 11.664062 43.835938 11.539062 C 48.472656 11.085938 53.007812 11.175781 57.449219 11.8125 Z M 57.449219 11.8125 "/>
<path style=" stroke:none;fill-rule:evenodd;fill:rgb(39.607843%,66.666667%,25.490196%);fill-opacity:1;" d="M 57.449219 11.8125 C 70.496094 14.253906 79.84375 21.578125 85.496094 33.792969 C 87.953125 41.289062 88.589844 48.984375 87.402344 56.867188 C 78.695312 80.3125 62.175781 89.011719 37.847656 82.96875 C 26.984375 77.988281 19.542969 69.839844 15.519531 58.515625 C 11.835938 41.367188 16.917969 27.539062 30.765625 17.03125 C 34.332031 14.867188 38.144531 13.3125 42.203125 12.363281 C 47.269531 11.875 52.351562 11.691406 57.449219 11.8125 Z M 57.449219 11.8125 "/>
<path style=" stroke:none;fill-rule:evenodd;fill:rgb(99.215686%,99.607843%,99.215686%);fill-opacity:1;" d="M 82.5 36.539062 C 82.621094 38.550781 83.164062 40.382812 84.132812 42.03125 C 84.242188 46.449219 84.058594 50.84375 83.589844 55.21875 C 80.714844 66.820312 73.816406 74.972656 62.894531 79.671875 C 45.25 84.820312 31.546875 79.601562 21.78125 64.011719 C 13.402344 42.671875 19.300781 26.828125 39.480469 16.484375 C 54.664062 12.09375 67.460938 15.847656 77.871094 27.746094 C 79.773438 30.488281 81.316406 33.421875 82.5 36.539062 Z M 82.5 36.539062 "/>
<path style=" stroke:none;fill-rule:evenodd;fill:rgb(67.058824%,49.803922%,32.941176%);fill-opacity:1;" d="M 75.964844 33.242188 C 75.414062 34.796875 74.507812 36.171875 73.242188 37.363281 C 67.996094 40.730469 62.550781 43.753906 56.90625 46.429688 C 56.722656 46.429688 56.542969 46.429688 56.363281 46.429688 C 55.53125 45.484375 54.988281 44.386719 54.726562 43.132812 C 59.765625 38.511719 65.210938 34.390625 71.0625 30.769531 C 73.472656 30.152344 75.105469 30.976562 75.964844 33.242188 Z M 75.964844 33.242188 "/>
<path style=" stroke:none;fill-rule:evenodd;fill:rgb(85.882353%,78.039216%,70.980392%);fill-opacity:1;" d="M 70.519531 32.691406 C 71.0625 32.691406 71.609375 32.691406 72.152344 32.691406 C 72.152344 33.242188 72.152344 33.792969 72.152344 34.339844 C 71.609375 34.339844 71.0625 34.339844 70.519531 34.339844 C 70.519531 33.792969 70.519531 33.242188 70.519531 32.691406 Z M 70.519531 32.691406 "/>
<path style=" stroke:none;fill-rule:evenodd;fill:rgb(93.72549%,90.196078%,87.058824%);fill-opacity:1;" d="M 65.074219 36.539062 C 66.144531 36.785156 66.324219 37.335938 65.617188 38.1875 C 65.136719 37.734375 64.953125 37.183594 65.074219 36.539062 Z M 65.074219 36.539062 "/>
<path style=" stroke:none;fill-rule:evenodd;fill:rgb(77.647059%,87.843137%,72.156863%);fill-opacity:1;" d="M 82.5 36.539062 C 83.46875 38.1875 84.011719 40.019531 84.132812 42.03125 C 83.164062 40.382812 82.621094 38.550781 82.5 36.539062 Z M 82.5 36.539062 "/>
<path style=" stroke:none;fill-rule:evenodd;fill:rgb(52.941176%,37.647059%,24.313725%);fill-opacity:1;" d="M 75.964844 33.242188 C 76.160156 35.53125 75.253906 37.269531 73.242188 38.460938 C 67.945312 41.5 62.679688 44.519531 57.449219 47.527344 C 56.996094 47.339844 56.8125 46.972656 56.90625 46.429688 C 62.550781 43.753906 67.996094 40.730469 73.242188 37.363281 C 74.507812 36.171875 75.414062 34.796875 75.964844 33.242188 Z M 75.964844 33.242188 "/>
<path style=" stroke:none;fill-rule:evenodd;fill:rgb(92.54902%,88.627451%,85.098039%);fill-opacity:1;" d="M 59.085938 40.933594 C 59.722656 40.8125 60.269531 40.996094 60.71875 41.484375 C 59.871094 42.195312 59.328125 42.011719 59.085938 40.933594 Z M 59.085938 40.933594 "/>
<path style=" stroke:none;fill-rule:evenodd;fill:rgb(81.568627%,82.352941%,82.745098%);fill-opacity:1;" d="M 54.726562 43.132812 C 54.988281 44.386719 55.53125 45.484375 56.363281 46.429688 C 55.460938 50.261719 53.824219 53.742188 51.460938 56.867188 C 49.207031 59.597656 46.667969 62.070312 43.835938 64.285156 C 43.960938 64.503906 44.140625 64.597656 44.382812 64.558594 C 43.03125 65.824219 41.578125 67.015625 40.023438 68.132812 C 39.40625 68.542969 38.863281 68.453125 38.390625 67.855469 C 34.808594 62.640625 31.359375 57.328125 28.042969 51.921875 C 31.550781 49.421875 35.363281 47.496094 39.480469 46.152344 C 44.566406 45.109375 49.648438 44.101562 54.726562 43.132812 Z M 54.726562 43.132812 "/>
<path style=" stroke:none;fill-rule:evenodd;fill:rgb(74.117647%,85.490196%,67.45098%);fill-opacity:1;" d="M 84.132812 42.03125 C 84.761719 45.78125 84.851562 49.625 84.40625 53.570312 C 84.28125 54.25 84.007812 54.800781 83.589844 55.21875 C 84.058594 50.84375 84.242188 46.449219 84.132812 42.03125 Z M 84.132812 42.03125 "/>
<path style=" stroke:none;fill-rule:evenodd;fill:rgb(49.019608%,49.411765%,49.803922%);fill-opacity:1;" d="M 56.363281 46.429688 C 56.542969 46.429688 56.722656 46.429688 56.90625 46.429688 C 56.8125 46.972656 56.996094 47.339844 57.449219 47.527344 C 56.195312 51.160156 54.378906 54.457031 52.003906 57.417969 C 51.640625 57.417969 51.460938 57.234375 51.460938 56.867188 C 53.824219 53.742188 55.460938 50.261719 56.363281 46.429688 Z M 56.363281 46.429688 "/>
<path style=" stroke:none;fill-rule:evenodd;fill:rgb(61.176471%,61.568627%,61.960784%);fill-opacity:1;" d="M 51.460938 56.867188 C 51.460938 57.234375 51.640625 57.417969 52.003906 57.417969 C 49.804688 60.1875 47.265625 62.566406 44.382812 64.558594 C 44.140625 64.597656 43.960938 64.503906 43.835938 64.285156 C 46.667969 62.070312 49.207031 59.597656 51.460938 56.867188 Z M 51.460938 56.867188 "/>
<path style=" stroke:none;fill-rule:evenodd;fill:rgb(9.803922%,45.098039%,25.490196%);fill-opacity:1;" d="M 87.402344 56.867188 C 81.324219 78.808594 66.984375 88.789062 44.382812 86.8125 C 29.304688 83.046875 19.683594 73.613281 15.519531 58.515625 C 19.542969 69.839844 26.984375 77.988281 37.847656 82.96875 C 62.175781 89.011719 78.695312 80.3125 87.402344 56.867188 Z M 87.402344 56.867188 "/>
</g>
</svg>
